<mxfile host="app.diagrams.net" agent="Mozilla/5.0 (Windows NT 10.0; Win64; x64) AppleWebKit/537.36 (KHTML, like Gecko) Chrome/140.0.0.0 Safari/537.36" version="28.2.5">
  <diagram name="Сторінка-1" id="bx60tYAHy64Ed4oxovdY">
    <mxGraphModel dx="513" dy="258" grid="1" gridSize="10" guides="1" tooltips="1" connect="1" arrows="1" fold="1" page="1" pageScale="1" pageWidth="827" pageHeight="1169" math="0" shadow="0">
      <root>
        <mxCell id="0" />
        <mxCell id="1" parent="0" />
        <mxCell id="U0YyA8Tr9wRG4on1PI0v-3" value="&lt;font style=&quot;vertical-align: inherit;&quot; dir=&quot;auto&quot;&gt;&lt;font style=&quot;vertical-align: inherit;&quot; dir=&quot;auto&quot;&gt;&lt;font style=&quot;vertical-align: inherit;&quot; dir=&quot;auto&quot;&gt;&lt;font style=&quot;vertical-align: inherit;&quot; dir=&quot;auto&quot;&gt;Locked with a key&lt;/font&gt;&lt;/font&gt;&lt;/font&gt;&lt;/font&gt;" style="shape=rect;rounded=1;html=1;whiteSpace=wrap;align=center;" parent="1" vertex="1">
          <mxGeometry x="365" y="110" width="100" height="40" as="geometry" />
        </mxCell>
        <mxCell id="U0YyA8Tr9wRG4on1PI0v-5" value="&lt;font style=&quot;vertical-align: inherit;&quot; dir=&quot;auto&quot;&gt;&lt;font style=&quot;vertical-align: inherit;&quot; dir=&quot;auto&quot;&gt;Unlocked&lt;/font&gt;&lt;/font&gt;" style="shape=rect;rounded=1;html=1;whiteSpace=wrap;align=center;" parent="1" vertex="1">
          <mxGeometry x="365" y="190" width="100" height="40" as="geometry" />
        </mxCell>
        <mxCell id="U0YyA8Tr9wRG4on1PI0v-6" value="Open" style="shape=rect;rounded=1;html=1;whiteSpace=wrap;align=center;" parent="1" vertex="1">
          <mxGeometry x="365" y="510" width="100" height="40" as="geometry" />
        </mxCell>
        <mxCell id="U0YyA8Tr9wRG4on1PI0v-7" value="&lt;font style=&quot;vertical-align: inherit;&quot; dir=&quot;auto&quot;&gt;&lt;font style=&quot;vertical-align: inherit;&quot; dir=&quot;auto&quot;&gt;&lt;font style=&quot;vertical-align: inherit;&quot; dir=&quot;auto&quot;&gt;&lt;font style=&quot;vertical-align: inherit;&quot; dir=&quot;auto&quot;&gt;Recorded&lt;/font&gt;&lt;/font&gt;&lt;/font&gt;&lt;/font&gt;" style="shape=rect;rounded=1;html=1;whiteSpace=wrap;align=center;" parent="1" vertex="1">
          <mxGeometry x="160" y="510" width="100" height="44" as="geometry" />
        </mxCell>
        <mxCell id="U0YyA8Tr9wRG4on1PI0v-8" value="Blocked" style="shape=rect;rounded=1;html=1;whiteSpace=wrap;align=center;" parent="1" vertex="1">
          <mxGeometry x="110" y="653" width="100" height="36" as="geometry" />
        </mxCell>
        <mxCell id="U0YyA8Tr9wRG4on1PI0v-9" value="Broken" style="shape=rect;rounded=1;html=1;whiteSpace=wrap;align=center;" parent="1" vertex="1">
          <mxGeometry x="100" y="240" width="100" height="40" as="geometry" />
        </mxCell>
        <mxCell id="U0YyA8Tr9wRG4on1PI0v-29" value="" style="shape=ellipse;html=1;fillColor=strokeColor;verticalLabelPosition=bottom;labelBackgroundColor=#ffffff;verticalAlign=top;" parent="1" vertex="1">
          <mxGeometry x="404" y="50" width="20" height="20" as="geometry" />
        </mxCell>
        <mxCell id="U0YyA8Tr9wRG4on1PI0v-31" value="" style="shape=mxgraph.sysml.actFinal;html=1;verticalLabelPosition=bottom;labelBackgroundColor=#ffffff;verticalAlign=top;" parent="1" vertex="1">
          <mxGeometry x="68" y="320" width="32" height="30" as="geometry" />
        </mxCell>
        <mxCell id="U0YyA8Tr9wRG4on1PI0v-52" value="" style="fontStyle=1;align=center;verticalAlign=middle;childLayout=stackLayout;horizontal=1;horizontalStack=0;resizeParent=1;resizeParentMax=0;resizeLast=0;marginBottom=0;rounded=1;absoluteArcSize=1;arcSize=22;" parent="1" vertex="1">
          <mxGeometry x="315" y="610" width="200" height="122" as="geometry" />
        </mxCell>
        <mxCell id="U0YyA8Tr9wRG4on1PI0v-53" value="&lt;font style=&quot;vertical-align: inherit;&quot; dir=&quot;auto&quot;&gt;&lt;font style=&quot;vertical-align: inherit;&quot; dir=&quot;auto&quot;&gt;Closing&lt;/font&gt;&lt;/font&gt;" style="html=1;align=center;spacing=0;verticalAlign=middle;strokeColor=none;fillColor=none;whiteSpace=wrap;" parent="U0YyA8Tr9wRG4on1PI0v-52" vertex="1">
          <mxGeometry width="200" height="20" as="geometry" />
        </mxCell>
        <mxCell id="U0YyA8Tr9wRG4on1PI0v-54" value="" style="line;strokeWidth=0.25;fillColor=none;align=left;verticalAlign=middle;spacingTop=-1;spacingLeft=3;spacingRight=3;rotatable=0;labelPosition=right;points=[];portConstraint=eastwest;" parent="U0YyA8Tr9wRG4on1PI0v-52" vertex="1">
          <mxGeometry y="20" width="200" height="8" as="geometry" />
        </mxCell>
        <mxCell id="U0YyA8Tr9wRG4on1PI0v-55" value="" style="html=1;align=left;spacing=0;spacingLeft=10;verticalAlign=middle;strokeColor=none;fillColor=none;whiteSpace=wrap;" parent="U0YyA8Tr9wRG4on1PI0v-52" vertex="1">
          <mxGeometry y="28" width="200" height="10" as="geometry" />
        </mxCell>
        <mxCell id="U0YyA8Tr9wRG4on1PI0v-56" value="entry / The doors stopped" style="html=1;align=left;spacing=0;spacingLeft=10;verticalAlign=middle;strokeColor=none;fillColor=none;whiteSpace=wrap;" parent="U0YyA8Tr9wRG4on1PI0v-52" vertex="1">
          <mxGeometry y="38" width="200" height="22" as="geometry" />
        </mxCell>
        <mxCell id="U0YyA8Tr9wRG4on1PI0v-57" value="do / The closer closes the door" style="html=1;align=left;spacing=0;spacingLeft=10;verticalAlign=middle;strokeColor=none;fillColor=none;whiteSpace=wrap;" parent="U0YyA8Tr9wRG4on1PI0v-52" vertex="1">
          <mxGeometry y="60" width="200" height="24" as="geometry" />
        </mxCell>
        <mxCell id="U0YyA8Tr9wRG4on1PI0v-58" value="exit / The doors stopped closing" style="html=1;align=left;spacingLeft=10;spacing=0;verticalAlign=middle;strokeColor=none;fillColor=none;whiteSpace=wrap;" parent="U0YyA8Tr9wRG4on1PI0v-52" vertex="1">
          <mxGeometry y="84" width="200" height="18" as="geometry" />
        </mxCell>
        <mxCell id="U0YyA8Tr9wRG4on1PI0v-59" value="" style="html=1;align=left;spacing=0;spacingLeft=10;verticalAlign=middle;strokeColor=none;fillColor=none;whiteSpace=wrap;" parent="U0YyA8Tr9wRG4on1PI0v-52" vertex="1">
          <mxGeometry y="102" width="200" height="20" as="geometry" />
        </mxCell>
        <mxCell id="U0YyA8Tr9wRG4on1PI0v-62" value="" style="strokeColor=inherit;fillColor=inherit;gradientColor=inherit;edgeStyle=none;html=1;endArrow=open;endSize=12;rounded=0;" parent="1" edge="1">
          <mxGeometry relative="1" as="geometry">
            <mxPoint x="413.83" y="70" as="sourcePoint" />
            <mxPoint x="413.83" y="110" as="targetPoint" />
          </mxGeometry>
        </mxCell>
        <mxCell id="U0YyA8Tr9wRG4on1PI0v-63" value="" style="strokeColor=inherit;fillColor=inherit;gradientColor=inherit;edgeStyle=none;html=1;endArrow=open;endSize=12;rounded=0;" parent="1" edge="1">
          <mxGeometry relative="1" as="geometry">
            <mxPoint x="413" y="150" as="sourcePoint" />
            <mxPoint x="413" y="190" as="targetPoint" />
          </mxGeometry>
        </mxCell>
        <mxCell id="Rb9oeNwLeeAGWuhx7l8v-1" value="Opened with a key" style="edgeLabel;html=1;align=center;verticalAlign=middle;resizable=0;points=[];" parent="U0YyA8Tr9wRG4on1PI0v-63" vertex="1" connectable="0">
          <mxGeometry x="-0.1016" y="-1" relative="1" as="geometry">
            <mxPoint as="offset" />
          </mxGeometry>
        </mxCell>
        <mxCell id="U0YyA8Tr9wRG4on1PI0v-64" value="" style="strokeColor=inherit;fillColor=inherit;gradientColor=inherit;edgeStyle=none;html=1;endArrow=open;endSize=12;rounded=0;" parent="1" edge="1">
          <mxGeometry relative="1" as="geometry">
            <mxPoint x="414" y="230" as="sourcePoint" />
            <mxPoint x="414" y="270" as="targetPoint" />
          </mxGeometry>
        </mxCell>
        <mxCell id="U0YyA8Tr9wRG4on1PI0v-65" value="" style="strokeColor=inherit;fillColor=inherit;gradientColor=inherit;edgeStyle=none;html=1;endArrow=open;endSize=12;rounded=0;" parent="1" edge="1">
          <mxGeometry relative="1" as="geometry">
            <mxPoint x="414" y="550" as="sourcePoint" />
            <mxPoint x="414" y="610" as="targetPoint" />
          </mxGeometry>
        </mxCell>
        <mxCell id="U0YyA8Tr9wRG4on1PI0v-66" value="&lt;font style=&quot;vertical-align: inherit;&quot; dir=&quot;auto&quot;&gt;&lt;font style=&quot;vertical-align: inherit;&quot; dir=&quot;auto&quot;&gt;The handle is released.&lt;/font&gt;&lt;/font&gt;" style="edgeLabel;html=1;align=center;verticalAlign=middle;resizable=0;points=[];" parent="U0YyA8Tr9wRG4on1PI0v-65" vertex="1" connectable="0">
          <mxGeometry x="-0.4077" y="1" relative="1" as="geometry">
            <mxPoint x="1" y="6" as="offset" />
          </mxGeometry>
        </mxCell>
        <mxCell id="U0YyA8Tr9wRG4on1PI0v-67" value="" style="endArrow=none;html=1;rounded=0;exitX=1;exitY=0;exitDx=0;exitDy=0;" parent="1" source="U0YyA8Tr9wRG4on1PI0v-57" edge="1">
          <mxGeometry width="50" height="50" relative="1" as="geometry">
            <mxPoint x="610" y="640" as="sourcePoint" />
            <mxPoint x="640" y="670" as="targetPoint" />
          </mxGeometry>
        </mxCell>
        <mxCell id="U0YyA8Tr9wRG4on1PI0v-68" value="" style="endArrow=none;html=1;rounded=0;" parent="1" edge="1">
          <mxGeometry width="50" height="50" relative="1" as="geometry">
            <mxPoint x="640" y="290" as="sourcePoint" />
            <mxPoint x="640" y="670" as="targetPoint" />
          </mxGeometry>
        </mxCell>
        <mxCell id="U0YyA8Tr9wRG4on1PI0v-69" value="" style="strokeColor=inherit;fillColor=inherit;gradientColor=inherit;edgeStyle=none;html=1;endArrow=open;endSize=12;rounded=0;entryX=1;entryY=0.5;entryDx=0;entryDy=0;" parent="1" target="U0YyA8Tr9wRG4on1PI0v-87" edge="1">
          <mxGeometry relative="1" as="geometry">
            <mxPoint x="640" y="290" as="sourcePoint" />
            <mxPoint x="540" y="380" as="targetPoint" />
          </mxGeometry>
        </mxCell>
        <mxCell id="U0YyA8Tr9wRG4on1PI0v-71" value="" style="strokeColor=inherit;fillColor=inherit;gradientColor=inherit;edgeStyle=none;html=1;endArrow=open;endSize=12;rounded=0;" parent="1" edge="1">
          <mxGeometry relative="1" as="geometry">
            <mxPoint x="413.82" y="460" as="sourcePoint" />
            <mxPoint x="413.82" y="510" as="targetPoint" />
          </mxGeometry>
        </mxCell>
        <mxCell id="U0YyA8Tr9wRG4on1PI0v-73" value="" style="endArrow=none;html=1;rounded=0;" parent="1" edge="1">
          <mxGeometry width="50" height="50" relative="1" as="geometry">
            <mxPoint x="150" y="130" as="sourcePoint" />
            <mxPoint x="365" y="130" as="targetPoint" />
          </mxGeometry>
        </mxCell>
        <mxCell id="U0YyA8Tr9wRG4on1PI0v-74" value="" style="strokeColor=inherit;fillColor=inherit;gradientColor=inherit;edgeStyle=none;html=1;endArrow=open;endSize=12;rounded=0;" parent="1" target="U0YyA8Tr9wRG4on1PI0v-9" edge="1">
          <mxGeometry relative="1" as="geometry">
            <mxPoint x="150" y="130" as="sourcePoint" />
            <mxPoint x="150" y="350" as="targetPoint" />
          </mxGeometry>
        </mxCell>
        <mxCell id="U0YyA8Tr9wRG4on1PI0v-75" value="The key broke in the door." style="edgeLabel;html=1;align=center;verticalAlign=middle;resizable=0;points=[];" parent="U0YyA8Tr9wRG4on1PI0v-74" vertex="1" connectable="0">
          <mxGeometry x="-0.4261" relative="1" as="geometry">
            <mxPoint y="27" as="offset" />
          </mxGeometry>
        </mxCell>
        <mxCell id="U0YyA8Tr9wRG4on1PI0v-77" value="" style="strokeColor=inherit;fillColor=inherit;gradientColor=inherit;edgeStyle=none;html=1;endArrow=open;endSize=12;rounded=0;" parent="1" edge="1">
          <mxGeometry relative="1" as="geometry">
            <mxPoint x="364" y="530" as="sourcePoint" />
            <mxPoint x="260" y="530" as="targetPoint" />
          </mxGeometry>
        </mxCell>
        <mxCell id="U0YyA8Tr9wRG4on1PI0v-78" value="&lt;font style=&quot;vertical-align: inherit;&quot; dir=&quot;auto&quot;&gt;&lt;font style=&quot;vertical-align: inherit;&quot; dir=&quot;auto&quot;&gt;&lt;font style=&quot;vertical-align: inherit;&quot; dir=&quot;auto&quot;&gt;Recorded&lt;/font&gt;&lt;/font&gt;&lt;/font&gt;&lt;div&gt;&lt;font style=&quot;vertical-align: inherit;&quot; dir=&quot;auto&quot;&gt;closer&lt;/font&gt;&lt;/div&gt;" style="edgeLabel;html=1;align=center;verticalAlign=middle;resizable=0;points=[];" parent="U0YyA8Tr9wRG4on1PI0v-77" vertex="1" connectable="0">
          <mxGeometry x="0.1607" y="-1" relative="1" as="geometry">
            <mxPoint x="12" y="1" as="offset" />
          </mxGeometry>
        </mxCell>
        <mxCell id="U0YyA8Tr9wRG4on1PI0v-79" value="" style="strokeColor=inherit;fillColor=inherit;gradientColor=inherit;edgeStyle=none;html=1;endArrow=open;endSize=12;rounded=0;" parent="1" edge="1">
          <mxGeometry relative="1" as="geometry">
            <mxPoint x="315" y="670.58" as="sourcePoint" />
            <mxPoint x="211" y="670.58" as="targetPoint" />
          </mxGeometry>
        </mxCell>
        <mxCell id="U0YyA8Tr9wRG4on1PI0v-80" value="&lt;font style=&quot;vertical-align: inherit;&quot; dir=&quot;auto&quot;&gt;Encounter&amp;nbsp;&lt;/font&gt;&lt;div&gt;&lt;font style=&quot;vertical-align: inherit;&quot; dir=&quot;auto&quot;&gt;on&amp;nbsp;&lt;/font&gt;&lt;/div&gt;&lt;div&gt;&lt;font style=&quot;vertical-align: inherit;&quot; dir=&quot;auto&quot;&gt;obstacle&lt;/font&gt;&lt;/div&gt;" style="edgeLabel;html=1;align=center;verticalAlign=middle;resizable=0;points=[];" parent="U0YyA8Tr9wRG4on1PI0v-79" vertex="1" connectable="0">
          <mxGeometry x="0.1607" y="-1" relative="1" as="geometry">
            <mxPoint x="12" y="1" as="offset" />
          </mxGeometry>
        </mxCell>
        <mxCell id="U0YyA8Tr9wRG4on1PI0v-81" value="" style="endArrow=none;html=1;rounded=0;" parent="1" edge="1">
          <mxGeometry width="50" height="50" relative="1" as="geometry">
            <mxPoint x="160" y="780" as="sourcePoint" />
            <mxPoint x="160" y="689" as="targetPoint" />
          </mxGeometry>
        </mxCell>
        <mxCell id="U0YyA8Tr9wRG4on1PI0v-82" value="" style="endArrow=none;html=1;rounded=0;" parent="1" edge="1">
          <mxGeometry width="50" height="50" relative="1" as="geometry">
            <mxPoint x="160" y="780" as="sourcePoint" />
            <mxPoint x="413" y="780" as="targetPoint" />
          </mxGeometry>
        </mxCell>
        <mxCell id="U0YyA8Tr9wRG4on1PI0v-83" value="" style="strokeColor=inherit;fillColor=inherit;gradientColor=inherit;edgeStyle=none;html=1;endArrow=open;endSize=12;rounded=0;entryX=0.5;entryY=1;entryDx=0;entryDy=0;" parent="1" edge="1">
          <mxGeometry relative="1" as="geometry">
            <mxPoint x="413" y="780" as="sourcePoint" />
            <mxPoint x="413" y="732" as="targetPoint" />
          </mxGeometry>
        </mxCell>
        <mxCell id="U0YyA8Tr9wRG4on1PI0v-84" value="&lt;font style=&quot;vertical-align: inherit;&quot; dir=&quot;auto&quot;&gt;Obstacle&lt;/font&gt;&lt;div&gt;&lt;font style=&quot;vertical-align: inherit;&quot; dir=&quot;auto&quot;&gt;it seems&lt;/font&gt;&lt;/div&gt;" style="edgeLabel;html=1;align=center;verticalAlign=middle;resizable=0;points=[];" parent="U0YyA8Tr9wRG4on1PI0v-83" vertex="1" connectable="0">
          <mxGeometry x="0.1607" y="-1" relative="1" as="geometry">
            <mxPoint y="8" as="offset" />
          </mxGeometry>
        </mxCell>
        <mxCell id="U0YyA8Tr9wRG4on1PI0v-85" value="" style="strokeColor=inherit;fillColor=inherit;gradientColor=inherit;edgeStyle=none;html=1;endArrow=open;endSize=12;rounded=0;entryX=0;entryY=0.5;entryDx=0;entryDy=0;exitX=0.5;exitY=1;exitDx=0;exitDy=0;" parent="1" source="U0YyA8Tr9wRG4on1PI0v-7" target="U0YyA8Tr9wRG4on1PI0v-53" edge="1">
          <mxGeometry relative="1" as="geometry">
            <mxPoint x="230" y="560" as="sourcePoint" />
            <mxPoint x="230" y="610" as="targetPoint" />
          </mxGeometry>
        </mxCell>
        <mxCell id="U0YyA8Tr9wRG4on1PI0v-86" value="&lt;font style=&quot;vertical-align: inherit;&quot; dir=&quot;auto&quot;&gt;Door closer&amp;nbsp;&lt;/font&gt;&lt;div&gt;&lt;font style=&quot;vertical-align: inherit;&quot; dir=&quot;auto&quot;&gt;removed&lt;/font&gt;&lt;/div&gt;&lt;div&gt;&lt;font style=&quot;vertical-align: inherit;&quot; dir=&quot;auto&quot;&gt;from fixation&lt;/font&gt;&lt;/div&gt;" style="edgeLabel;html=1;align=center;verticalAlign=middle;resizable=0;points=[];" parent="U0YyA8Tr9wRG4on1PI0v-85" vertex="1" connectable="0">
          <mxGeometry x="-0.122" y="-1" relative="1" as="geometry">
            <mxPoint as="offset" />
          </mxGeometry>
        </mxCell>
        <mxCell id="U0YyA8Tr9wRG4on1PI0v-87" value="&lt;font style=&quot;vertical-align: inherit;&quot; dir=&quot;auto&quot;&gt;&lt;font style=&quot;vertical-align: inherit;&quot; dir=&quot;auto&quot;&gt;&lt;font style=&quot;vertical-align: inherit;&quot; dir=&quot;auto&quot;&gt;&lt;font style=&quot;vertical-align: inherit;&quot; dir=&quot;auto&quot;&gt;Closed&lt;/font&gt;&lt;/font&gt;&lt;/font&gt;&lt;/font&gt;" style="strokeColor=inherit;fillColor=inherit;gradientColor=inherit;shape=rect;html=1;rounded=1;whiteSpace=wrap;align=center;" parent="1" vertex="1">
          <mxGeometry x="363" y="270" width="100" height="40" as="geometry" />
        </mxCell>
        <mxCell id="U0YyA8Tr9wRG4on1PI0v-88" value="" style="fontStyle=1;align=center;verticalAlign=middle;childLayout=stackLayout;horizontal=1;horizontalStack=0;resizeParent=1;resizeParentMax=0;resizeLast=0;marginBottom=0;rounded=1;absoluteArcSize=1;arcSize=22;" parent="1" vertex="1">
          <mxGeometry x="325" y="360" width="180" height="120" as="geometry" />
        </mxCell>
        <mxCell id="U0YyA8Tr9wRG4on1PI0v-89" value="Opening" style="html=1;align=center;spacing=0;verticalAlign=middle;strokeColor=none;fillColor=none;whiteSpace=wrap;" parent="U0YyA8Tr9wRG4on1PI0v-88" vertex="1">
          <mxGeometry width="180" height="20" as="geometry" />
        </mxCell>
        <mxCell id="U0YyA8Tr9wRG4on1PI0v-90" value="" style="line;strokeWidth=0.25;fillColor=none;align=left;verticalAlign=middle;spacingTop=-1;spacingLeft=3;spacingRight=3;rotatable=0;labelPosition=right;points=[];portConstraint=eastwest;" parent="U0YyA8Tr9wRG4on1PI0v-88" vertex="1">
          <mxGeometry y="20" width="180" height="8" as="geometry" />
        </mxCell>
        <mxCell id="U0YyA8Tr9wRG4on1PI0v-91" value="" style="html=1;align=left;spacing=0;spacingLeft=10;verticalAlign=middle;strokeColor=none;fillColor=none;whiteSpace=wrap;" parent="U0YyA8Tr9wRG4on1PI0v-88" vertex="1">
          <mxGeometry y="28" width="180" height="10" as="geometry" />
        </mxCell>
        <mxCell id="U0YyA8Tr9wRG4on1PI0v-92" value="entry / Man holding a door handle" style="html=1;align=left;spacing=0;spacingLeft=10;verticalAlign=middle;strokeColor=none;fillColor=none;whiteSpace=wrap;" parent="U0YyA8Tr9wRG4on1PI0v-88" vertex="1">
          <mxGeometry y="38" width="180" height="22" as="geometry" />
        </mxCell>
        <mxCell id="U0YyA8Tr9wRG4on1PI0v-93" value="do / The door opens" style="html=1;align=left;spacing=0;spacingLeft=10;verticalAlign=middle;strokeColor=none;fillColor=none;whiteSpace=wrap;" parent="U0YyA8Tr9wRG4on1PI0v-88" vertex="1">
          <mxGeometry y="60" width="180" height="14" as="geometry" />
        </mxCell>
        <mxCell id="U0YyA8Tr9wRG4on1PI0v-94" value="exit / The door is temporarily open" style="html=1;align=left;spacingLeft=10;spacing=0;verticalAlign=middle;strokeColor=none;fillColor=none;whiteSpace=wrap;" parent="U0YyA8Tr9wRG4on1PI0v-88" vertex="1">
          <mxGeometry y="74" width="180" height="26" as="geometry" />
        </mxCell>
        <mxCell id="U0YyA8Tr9wRG4on1PI0v-95" value="" style="html=1;align=left;spacing=0;spacingLeft=10;verticalAlign=middle;strokeColor=none;fillColor=none;whiteSpace=wrap;" parent="U0YyA8Tr9wRG4on1PI0v-88" vertex="1">
          <mxGeometry y="100" width="180" height="20" as="geometry" />
        </mxCell>
        <mxCell id="U0YyA8Tr9wRG4on1PI0v-96" value="" style="strokeColor=inherit;fillColor=inherit;gradientColor=inherit;edgeStyle=none;html=1;endArrow=open;endSize=12;rounded=0;" parent="1" edge="1">
          <mxGeometry relative="1" as="geometry">
            <mxPoint x="414.57" y="310" as="sourcePoint" />
            <mxPoint x="414.57" y="360" as="targetPoint" />
          </mxGeometry>
        </mxCell>
        <mxCell id="Rb9oeNwLeeAGWuhx7l8v-2" value="&lt;font style=&quot;vertical-align: inherit;&quot; dir=&quot;auto&quot;&gt;&lt;font style=&quot;vertical-align: inherit;&quot; dir=&quot;auto&quot;&gt;Start opening&lt;/font&gt;&lt;/font&gt;" style="edgeLabel;html=1;align=center;verticalAlign=middle;resizable=0;points=[];" parent="U0YyA8Tr9wRG4on1PI0v-96" vertex="1" connectable="0">
          <mxGeometry x="-0.3011" y="1" relative="1" as="geometry">
            <mxPoint as="offset" />
          </mxGeometry>
        </mxCell>
        <mxCell id="U0YyA8Tr9wRG4on1PI0v-98" value="&lt;font style=&quot;vertical-align: inherit;&quot; dir=&quot;auto&quot;&gt;&lt;font style=&quot;vertical-align: inherit;&quot; dir=&quot;auto&quot;&gt;&lt;font style=&quot;vertical-align: inherit;&quot; dir=&quot;auto&quot;&gt;&lt;font style=&quot;vertical-align: inherit;&quot; dir=&quot;auto&quot;&gt;&lt;font style=&quot;vertical-align: inherit;&quot; dir=&quot;auto&quot;&gt;&lt;font style=&quot;vertical-align: inherit;&quot; dir=&quot;auto&quot;&gt;Locked with a key&lt;/font&gt;&lt;/font&gt;&lt;/font&gt;&lt;/font&gt;&lt;/font&gt;&lt;/font&gt;" style="shape=rect;rounded=1;html=1;whiteSpace=wrap;align=center;" parent="1" vertex="1">
          <mxGeometry x="160" y="360" width="100" height="40" as="geometry" />
        </mxCell>
        <mxCell id="U0YyA8Tr9wRG4on1PI0v-99" value="" style="strokeColor=inherit;fillColor=inherit;gradientColor=inherit;edgeStyle=none;html=1;endArrow=open;endSize=12;rounded=0;exitX=0;exitY=0.5;exitDx=0;exitDy=0;entryX=0.5;entryY=0;entryDx=0;entryDy=0;" parent="1" source="U0YyA8Tr9wRG4on1PI0v-87" target="U0YyA8Tr9wRG4on1PI0v-98" edge="1">
          <mxGeometry relative="1" as="geometry">
            <mxPoint x="270" y="310" as="sourcePoint" />
            <mxPoint x="270" y="360" as="targetPoint" />
          </mxGeometry>
        </mxCell>
        <mxCell id="Rb9oeNwLeeAGWuhx7l8v-3" value="&lt;font style=&quot;vertical-align: inherit;&quot; dir=&quot;auto&quot;&gt;&lt;font style=&quot;vertical-align: inherit;&quot; dir=&quot;auto&quot;&gt;Lock with a key&lt;/font&gt;&lt;/font&gt;" style="edgeLabel;html=1;align=center;verticalAlign=middle;resizable=0;points=[];" parent="U0YyA8Tr9wRG4on1PI0v-99" vertex="1" connectable="0">
          <mxGeometry x="-0.17" y="3" relative="1" as="geometry">
            <mxPoint y="1" as="offset" />
          </mxGeometry>
        </mxCell>
        <mxCell id="U0YyA8Tr9wRG4on1PI0v-100" value="" style="strokeColor=inherit;fillColor=inherit;gradientColor=inherit;edgeStyle=none;html=1;endArrow=open;endSize=12;rounded=0;exitX=0;exitY=0.5;exitDx=0;exitDy=0;entryX=0.855;entryY=0.855;entryDx=0;entryDy=0;entryPerimeter=0;" parent="1" source="U0YyA8Tr9wRG4on1PI0v-98" target="U0YyA8Tr9wRG4on1PI0v-31" edge="1">
          <mxGeometry relative="1" as="geometry">
            <mxPoint x="413" y="420" as="sourcePoint" />
            <mxPoint x="260" y="490" as="targetPoint" />
          </mxGeometry>
        </mxCell>
        <mxCell id="U0YyA8Tr9wRG4on1PI0v-101" value="" style="strokeColor=inherit;fillColor=inherit;gradientColor=inherit;edgeStyle=none;html=1;endArrow=open;endSize=12;rounded=0;exitX=0.5;exitY=1;exitDx=0;exitDy=0;entryX=0.5;entryY=0;entryDx=0;entryDy=0;entryPerimeter=0;" parent="1" source="U0YyA8Tr9wRG4on1PI0v-9" target="U0YyA8Tr9wRG4on1PI0v-31" edge="1">
          <mxGeometry relative="1" as="geometry">
            <mxPoint x="343" y="430" as="sourcePoint" />
            <mxPoint x="190" y="500" as="targetPoint" />
          </mxGeometry>
        </mxCell>
      </root>
    </mxGraphModel>
  </diagram>
</mxfile>
